<?xml version="1.0" encoding="UTF-8" standalone="no"?>
<!DOCTYPE svg PUBLIC "-//W3C//DTD SVG 1.1//EN"
 "http://www.w3.org/Graphics/SVG/1.1/DTD/svg11.dtd">
<!-- Generated by graphviz version 2.49.3 (20211023.0002)
 -->
<!-- Title: G Pages: 1 -->
<svg width="443pt" height="66pt"
 viewBox="0.00 0.00 443.20 66.20" xmlns="http://www.w3.org/2000/svg" xmlns:xlink="http://www.w3.org/1999/xlink">
<g id="graph0" class="graph" transform="scale(1 1) rotate(0) translate(21.6 44.6)">
<title>G</title>
<polygon fill="#111111" stroke="transparent" points="-21.6,21.6 -21.6,-44.6 421.6,-44.6 421.6,21.6 -21.6,21.6"/>
<!-- api_clients/etherscan.ts -->
<g id="node1" class="node">
<title>api_clients/etherscan.ts</title>
<path fill="none" stroke="#ff6c60" d="M155.33,-23C155.33,-23 7.67,-23 7.67,-23 3.83,-23 0,-19.17 0,-15.33 0,-15.33 0,-7.67 0,-7.67 0,-3.83 3.83,0 7.67,0 7.67,0 155.33,0 155.33,0 159.17,0 163,-3.83 163,-7.67 163,-7.67 163,-15.33 163,-15.33 163,-19.17 159.17,-23 155.33,-23"/>
<text text-anchor="middle" x="81.5" y="-7.8" font-family="Arial" font-size="14.00" fill="#ff6c60">api_clients/etherscan.ts</text>
</g>
<!-- api_clients/etherscan_base.ts -->
<g id="node2" class="node">
<title>api_clients/etherscan_base.ts</title>
<path fill="none" stroke="#ff6c60" d="M392.33,-23C392.33,-23 206.67,-23 206.67,-23 202.83,-23 199,-19.17 199,-15.33 199,-15.33 199,-7.67 199,-7.67 199,-3.83 202.83,0 206.67,0 206.67,0 392.33,0 392.33,0 396.17,0 400,-3.83 400,-7.67 400,-7.67 400,-15.33 400,-15.33 400,-19.17 396.17,-23 392.33,-23"/>
<text text-anchor="middle" x="299.5" y="-7.8" font-family="Arial" font-size="14.00" fill="#ff6c60">api_clients/etherscan_base.ts</text>
</g>
<!-- api_clients/etherscan.ts&#45;&gt;api_clients/etherscan_base.ts -->
<g id="edge1" class="edge">
<title>api_clients/etherscan.ts&#45;&gt;api_clients/etherscan_base.ts</title>
<path fill="none" stroke="#757575" d="M163.24,-4.94C171.59,-4.82 180.18,-4.76 188.78,-4.75"/>
<polygon fill="#757575" stroke="#757575" points="188.87,-8.25 198.87,-4.77 188.88,-1.25 188.87,-8.25"/>
</g>
<!-- api_clients/etherscan_base.ts&#45;&gt;api_clients/etherscan.ts -->
<g id="edge2" class="edge">
<title>api_clients/etherscan_base.ts&#45;&gt;api_clients/etherscan.ts</title>
<path fill="none" stroke="#757575" d="M198.87,-18.23C190.39,-18.27 181.83,-18.25 173.42,-18.17"/>
<polygon fill="#757575" stroke="#757575" points="173.28,-14.67 163.24,-18.06 173.2,-21.67 173.28,-14.67"/>
</g>
</g>
</svg>
